HIERARCHY
ROOT Hips
{
    OFFSET 0.000000 0.000000 0.000000
    CHANNELS 6 Xposition Yposition Zposition Zrotation Xrotation Yrotation
    JOINT Spine
    {
        OFFSET -0.000000 7.750029 0.000000
        CHANNELS 3 Zrotation Xrotation Yrotation
        JOINT Spine1
        {
            OFFSET -0.000000 19.767460 0.000000
            CHANNELS 3 Zrotation Xrotation Yrotation
            JOINT Neck
            {
                OFFSET -0.000000 19.686279 1.789662
                CHANNELS 3 Zrotation Xrotation Yrotation
                JOINT Head
                {
                    OFFSET -0.000000 13.231757 -1.890251
                    CHANNELS 3 Zrotation Xrotation Yrotation
                    End Site
                    {
                        OFFSET -0.000000 23.628138 0.000000
                    }
                }
            }
            JOINT LeftShoulder
            {
                OFFSET 3.736819 16.910755 -0.280982
                CHANNELS 3 Zrotation Xrotation Yrotation
                JOINT LeftArm
                {
                    OFFSET 13.626117 0.000000 0.000000
                    CHANNELS 3 Zrotation Xrotation Yrotation
                    JOINT LeftForeArm
                    {
                        OFFSET 31.364786 0.000000 0.000000
                        CHANNELS 3 Zrotation Xrotation Yrotation
                        JOINT LeftHand
                        {
                            OFFSET 23.389509 0.000000 0.000000
                            CHANNELS 3 Zrotation Xrotation Yrotation
                            End Site
                            {
                                OFFSET 14.176883 0.000000 0.000000
                            }
                        }
                    }
                }
            }
            JOINT RightShoulder
            {
                OFFSET -3.821718 16.910755 -0.280982
                CHANNELS 3 Zrotation Xrotation Yrotation
                JOINT RightArm
                {
                    OFFSET -13.626117 0.000000 0.000000
                    CHANNELS 3 Zrotation Xrotation Yrotation
                    JOINT RightForeArm
                    {
                        OFFSET -31.364786 0.000000 0.000000
                        CHANNELS 3 Zrotation Xrotation Yrotation
                        JOINT RightHand
                        {
                            OFFSET -23.389509 0.000000 0.000000
                            CHANNELS 3 Zrotation Xrotation Yrotation
                            End Site
                            {
                                OFFSET -14.176883 0.000000 0.000000
                            }
                        }
                    }
                }
            }
        }
    }
    JOINT LeftUpLeg
    {
        OFFSET 9.451255 0.000000 0.000000
        CHANNELS 3 Zrotation Xrotation Yrotation
        JOINT LeftLeg
        {
            OFFSET -0.000000 -41.898624 0.000000
            CHANNELS 3 Zrotation Xrotation Yrotation
            JOINT LeftFoot
            {
                OFFSET -0.000000 -38.481331 0.000000
                CHANNELS 3 Zrotation Xrotation Yrotation
                JOINT LeftToeBase
                {
                    OFFSET -0.000000 -6.143315 14.176883
                    CHANNELS 3 Zrotation Xrotation Yrotation
                    End Site
                    {
                        OFFSET -0.000000 0.000000 3.780502
                    }
                }
            }
        }
    }
    JOINT RightUpLeg
    {
        OFFSET -9.451255 0.000000 0.000000
        CHANNELS 3 Zrotation Xrotation Yrotation
        JOINT RightLeg
        {
            OFFSET -0.000000 -41.898624 0.000000
            CHANNELS 3 Zrotation Xrotation Yrotation
            JOINT RightFoot
            {
                OFFSET -0.000000 -38.481331 0.000000
                CHANNELS 3 Zrotation Xrotation Yrotation
                JOINT RightToeBase
                {
                    OFFSET -0.000000 -6.143315 14.176883
                    CHANNELS 3 Zrotation Xrotation Yrotation
                    End Site
                    {
                        OFFSET -0.000000 0.000000 3.780502
                    }
                }
            }
        }
    }
}
MOTION
Frames:    12
Frame Time:    0.010000
-20.536678    91.064110    -13.977939    -1.652753    1.841728    173.438385    -1.206080    -3.912600    -0.939840    0.105995    3.137368    -0.901497    -5.676256    34.201527    6.863315    -7.580580    -24.848515    3.449389    8.479662    7.439228    -0.231785    -84.929222    42.523727    3.306601    6.278019    -19.461903    -9.376081    -13.671040    -17.572783    -12.273020    -11.637143    11.983717    -12.527170    73.477539    19.407774    1.103725    -18.675861    -35.256744    78.059143    2.631208    -21.814203    -0.392683    3.933787    -4.026963    -1.511372    -3.504534    16.945604    -4.286128    -2.255031    -8.393753    19.554998    0.000000    0.000000    0.000000    -4.428499    3.616739    -1.406468    1.906347    14.831352    9.260507    -1.210991    -13.298631    -25.779837    0.000000    0.000000    0.000000    
-20.544182    90.976974    -13.839248    -1.947658    1.444867    172.874695    -2.165156    -3.701082    -0.585192    0.988499    2.093373    -0.533276    -5.675126    34.569984    6.683314    -7.478103    -24.640322    3.289175    8.315915    7.843986    -0.704894    -85.053520    42.367958    3.447467    6.737401    -18.665747    -8.800938    -14.937310    -16.553320    -12.891009    -12.664251    11.180794    -12.665035    71.304802    15.413633    1.567136    -16.466400    -34.336597    82.931450    0.516338    -21.358877    -1.312869    3.715334    -4.582040    -1.218287    -3.415478    17.221605    -4.848043    -2.171272    -8.576626    19.886765    0.000000    0.000000    0.000000    -4.669722    2.716466    -1.037316    1.810640    15.426023    9.331691    -1.374131    -13.812940    -25.785526    0.000000    0.000000    0.000000    
-20.623590    90.939812    -13.917279    -1.991984    1.509333    172.902771    -2.558389    -3.288957    -0.444768    1.460065    1.350199    -0.388678    -5.780987    34.758511    6.441816    -7.057986    -24.305149    3.174128    8.214605    8.285709    -1.093448    -85.174507    42.195023    3.568825    6.843325    -18.522842    -8.712135    -15.125945    -16.409103    -12.705780    -13.760847    10.405475    -13.001632    69.594353    14.215754    2.206036    -17.605778    -36.305206    85.184059    -0.990526    -21.996195    -3.302634    3.517261    -4.495490    -1.868150    -3.514476    17.211687    -4.143073    -1.983099    -8.722292    19.861513    0.000000    0.000000    0.000000    -4.793637    2.747085    -1.359552    1.776662    15.608800    9.509063    -1.377805    -13.981835    -25.736694    0.000000    0.000000    0.000000    
-20.669846    91.015587    -14.017420    -1.635580    1.490425    173.053970    -2.437308    -3.051495    -0.369335    1.770014    0.811026    -0.316947    -5.826139    34.881599    6.191254    -6.657865    -23.953365    3.056318    8.155346    8.903568    -1.216180    -84.695938    41.240566    2.909157    6.433623    -17.303799    -8.244674    -15.094717    -15.183023    -13.110521    -14.823887    9.013966    -12.620535    67.547234    12.221789    1.740921    -18.030487    -37.248734    87.997116    -4.052192    -21.747152    -5.775179    3.753003    -4.414716    -2.573464    -3.405989    17.126143    -4.186746    -2.020633    -8.660114    20.037199    0.000000    0.000000    0.000000    -4.424012    2.832711    -1.859271    1.640008    15.608602    9.621323    -1.181205    -13.511797    -25.578976    0.000000    0.000000    0.000000    
-20.709011    91.009018    -14.037212    -1.579148    1.468993    172.944916    -2.391827    -3.675359    -0.591505    1.130189    1.738145    -0.531879    -5.022177    35.116959    6.191377    -6.855415    -24.435352    3.098034    8.672142    8.869632    -0.899513    -85.060356    41.196735    2.998460    7.051112    -17.644491    -8.008217    -15.750852    -15.466876    -12.796752    -14.851007    7.165352    -10.682936    65.540276    9.834881    1.909909    -20.891382    -39.307468    87.951363    -6.242202    -21.316677    -7.006012    3.765662    -4.378925    -2.900736    -3.464431    17.048042    -3.787786    -1.959715    -8.726120    20.015635    0.000000    0.000000    0.000000    -4.381536    2.741358    -2.119555    1.534047    15.742471    9.793251    -1.165330    -13.510845    -25.460604    0.000000    0.000000    0.000000    
-20.755037    91.005920    -14.000948    -1.536002    1.285775    172.834305    -2.520606    -3.669825    -0.479393    1.156276    1.479951    -0.413580    -4.834251    35.376530    5.986689    -6.563683    -24.578949    3.000985    8.767249    8.788703    -1.160729    -85.265732    40.096645    3.273918    6.485070    -17.965948    -8.118232    -14.945378    -15.988304    -12.204760    -15.565617    5.777549    -9.868355    63.722126    8.213840    2.248984    -22.701908    -41.066349    88.124619    -9.297400    -21.412369    -7.806881    3.793960    -4.555650    -3.005456    -3.472335    17.002438    -3.514171    -1.957968    -8.697199    19.903795    0.000000    0.000000    0.000000    -4.595114    2.368907    -1.212376    2.294626    16.089867    9.375712    -1.500494    -13.557691    -25.950573    0.000000    0.000000    0.000000    
-20.783714    91.004028    -14.008480    -1.487845    1.308011    172.843002    -2.749038    -3.508068    -0.388929    1.265342    1.320234    -0.319452    -4.504791    35.593258    5.680579    -6.395905    -24.673775    2.788851    8.884132    9.289184    -1.108211    -85.016235    39.817757    2.676425    6.492105    -17.528418    -7.733854    -14.752779    -15.611061    -12.014046    -16.063398    4.366419    -8.999362    61.540524    6.072749    2.705430    -23.848488    -42.132862    88.555069    -12.533755    -21.148134    -8.694455    3.807571    -4.501516    -3.095266    -3.451676    16.950094    -3.547000    -2.011560    -8.761215    19.985462    0.000000    0.000000    0.000000    -4.569162    2.442480    -1.420729    2.246946    16.007658    9.555590    -1.505040    -13.519604    -25.952679    0.000000    0.000000    0.000000    
-20.818012    91.020309    -14.011417    -1.394077    1.270358    172.898117    -3.055756    -3.083296    -0.140795    1.855912    0.625122    -0.069862    -4.609881    35.847504    5.254981    -5.986656    -24.545887    2.463020    8.682937    9.644491    -1.404757    -85.004539    39.759575    2.618851    6.623981    -17.521626    -7.627691    -14.910494    -15.622423    -11.722420    -17.250689    3.233871    -8.592374    59.739548    3.268793    3.542093    -24.252642    -42.465073    88.969330    -14.134100    -20.932034    -8.249300    3.887258    -4.510212    -3.195802    -3.472466    16.771639    -2.196275    -2.141587    -8.481259    18.773943    0.000000    0.000000    0.000000    -4.482745    2.499506    -1.619355    2.201279    15.852754    9.645741    -1.368699    -13.402039    -25.916904    0.000000    0.000000    0.000000    
-20.852766    91.034874    -13.999553    -1.318941    1.188442    173.022934    -3.103238    -3.173818    -0.123020    1.702969    0.747273    -0.047625    -4.132146    35.998787    4.998917    -5.987161    -24.513336    2.285545    8.865060    9.777051    -1.432005    -84.966064    39.047852    2.352660    6.560102    -17.053831    -7.243863    -14.842820    -15.180163    -11.739506    -17.415607    1.697243    -7.355101    57.569736    0.821023    4.086619    -26.103989    -43.219093    88.145447    -15.298412    -20.270042    -8.524965    3.951713    -4.595711    -3.267022    -3.460924    16.743050    -2.365051    -2.183696    -8.509113    18.893703    0.000000    0.000000    0.000000    -4.401668    2.515249    -1.817322    2.165929    15.681354    9.641388    -1.344813    -13.263994    -25.838757    0.000000    0.000000    0.000000    
-20.875059    91.078392    -14.011429    -1.190758    1.194719    173.256454    -3.116152    -3.038719    -0.072799    1.672430    0.674422    0.000379    -3.712214    35.876373    4.676903    -5.994393    -23.933260    2.065786    8.931694    9.865855    -1.533392    -85.091576    38.784630    2.409827    7.254656    -16.481487    -6.844796    -16.115793    -14.449799    -11.779162    -17.736153    0.354932    -6.343757    55.451893    -2.440665    4.955676    -26.192665    -43.162479    88.459099    -16.535946    -19.885448    -8.478181    4.053247    -4.576848    -3.369920    -3.428396    16.685640    -2.444505    -2.219508    -8.414939    18.831337    0.000000    0.000000    0.000000    -4.262958    2.697399    -1.990338    2.151103    15.428331    9.587801    -1.161200    -13.028983    -25.846207    0.000000    0.000000    0.000000    
-20.908398    91.125298    -13.969893    -1.108304    0.996823    173.536758    -3.133813    -2.999260    -0.010752    1.639342    0.506225    0.064340    -3.388922    36.242737    4.193912    -5.912401    -24.138329    1.631714    9.000654    9.941527    -1.613880    -85.369270    39.114216    2.593283    7.583185    -16.356062    -6.688595    -16.117355    -14.309306    -11.812454    -17.832897    -0.831439    -5.561432    53.426220    -4.309193    6.138027    -26.868853    -44.936771    88.872101    -17.211218    -20.683969    -12.598733    4.115799    -4.830421    -3.425510    -3.358146    16.652357    -2.461154    -2.322281    -8.257676    18.700781    0.000000    0.000000    0.000000    -4.151446    2.622864    -2.103702    2.183728    15.214925    9.360004    -0.993074    -12.814482    -25.792164    0.000000    0.000000    0.000000    
-20.934238    91.160240    -13.921897    -1.090034    0.813626    173.882034    -3.218681    -2.911950    0.038485    1.644089    0.302924    0.116555    -3.306622    36.489441    3.647343    -5.478206    -24.221056    1.217520    9.015612    9.744486    -1.863185    -85.706573    38.633156    3.035188    7.083144    -17.545263    -7.135922    -14.426908    -15.807864    -10.802808    -18.064417    -2.011864    -4.507991    51.571770    -6.407934    7.052768    -27.859770    -45.265007    87.501160    -18.263653    -21.205727    -8.871842    4.118598    -5.082611    -3.528239    -3.288685    16.607021    -2.540186    -2.489672    -8.119133    18.590942    0.000000    0.000000    0.000000    -4.099608    2.543863    -2.250573    2.213953    15.043316    9.149449    -0.877038    -12.675859    -25.777401    0.000000    0.000000    0.000000    
